<!DOCTYPE svg PUBLIC "-//W3C//DTD SVG 1.1//EN" "http://www.w3.org/Graphics/SVG/1.1/DTD/svg11.dtd">
<!-- Uploaded to: SVG Repo, www.svgrepo.com, Transformed by: SVG Repo Mixer Tools -->
<svg width="800px" height="800px" viewBox="0 0 24 24" id="Layer_1" data-name="Layer 1" xmlns="http://www.w3.org/2000/svg" fill="#00243d" stroke="#00243d">
<g id="SVGRepo_bgCarrier" stroke-width="0"/>
<g id="SVGRepo_tracerCarrier" stroke-linecap="round" stroke-linejoin="round"/>
<g id="SVGRepo_iconCarrier">
<defs>
<style>.cls-1{fill:none;stroke:#00243d;stroke-miterlimit:10;stroke-width:1.2;}</style>
</defs>
<line class="cls-1" x1="1.5" y1="23.45" x2="1.5" y2="19.64"/>
<rect class="cls-1" x="1.5" y="15.82" width="21" height="3.82"/>
<path class="cls-1" d="M4.36,11H19.64a2.86,2.86,0,0,1,2.86,2.86v1.91a0,0,0,0,1,0,0H1.5a0,0,0,0,1,0,0V13.91A2.86,2.86,0,0,1,4.36,11Z"/>
<line class="cls-1" x1="22.5" y1="23.45" x2="22.5" y2="19.64"/>
<path class="cls-1" d="M6.27,7.23h3.82A1.91,1.91,0,0,1,12,9.14V11a0,0,0,0,1,0,0H4.36a0,0,0,0,1,0,0V9.14A1.91,1.91,0,0,1,6.27,7.23Z"/>
<path class="cls-1" d="M13.91,7.23h3.82a1.91,1.91,0,0,1,1.91,1.91V11a0,0,0,0,1,0,0H12a0,0,0,0,1,0,0V9.14A1.91,1.91,0,0,1,13.91,7.23Z"/>
<rect class="cls-1" x="4.36" y="3.41" width="15.27" height="7.64"/>
<line class="cls-1" x1="4.36" y1="0.55" x2="4.36" y2="3.41"/>
<line class="cls-1" x1="19.64" y1="0.55" x2="19.64" y2="3.41"/>
</g>
</svg>