<!DOCTYPE svg PUBLIC "-//W3C//DTD SVG 1.1//EN" "http://www.w3.org/Graphics/SVG/1.1/DTD/svg11.dtd">
<!-- Uploaded to: SVG Repo, www.svgrepo.com, Transformed by: SVG Repo Mixer Tools -->
<svg width="800px" height="800px" viewBox="0 0 24 24" id="Layer_1" data-name="Layer 1" xmlns="http://www.w3.org/2000/svg" fill="#000000">
<g id="SVGRepo_bgCarrier" stroke-width="0"/>
<g id="SVGRepo_tracerCarrier" stroke-linecap="round" stroke-linejoin="round"/>
<g id="SVGRepo_iconCarrier">
<defs>
<style>.cls-1{fill:none;stroke:#00243d;stroke-miterlimit:10;stroke-width:1.2;}</style>
</defs>
<rect class="cls-1" x="5.32" y="13.91" width="13.36" height="4.77"/>
<rect class="cls-1" x="5.32" y="13.91" width="13.36" height="4.77"/>
<path class="cls-1" d="M20.59,11h0A1.91,1.91,0,0,1,22.5,13v5.73a0,0,0,0,1,0,0H18.68a0,0,0,0,1,0,0V13A1.91,1.91,0,0,1,20.59,11Z"/>
<path class="cls-1" d="M3.41,11h0A1.91,1.91,0,0,1,5.32,13v5.73a0,0,0,0,1,0,0H1.5a0,0,0,0,1,0,0V13A1.91,1.91,0,0,1,3.41,11Z"/>
<path class="cls-1" d="M4.36,11.05V8.18A2.87,2.87,0,0,1,7.23,5.32h9.54a2.87,2.87,0,0,1,2.87,2.86v2.87"/>
<line class="cls-1" x1="8.18" y1="10.09" x2="10.09" y2="10.09"/>
<line class="cls-1" x1="13.91" y1="10.09" x2="15.82" y2="10.09"/>
</g>
</svg>