<svg xmlns="http://www.w3.org/2000/svg" xmlns:xlink="http://www.w3.org/1999/xlink" width="470" zoomAndPan="magnify" viewBox="0 0 352.5 112.499997" height="150" preserveAspectRatio="xMidYMid meet" version="1.0"><defs><g/><clipPath id="013d447896"><path d="M 0.53125 15 L 31 15 L 31 112.003906 L 0.53125 112.003906 Z M 0.53125 15 " clip-rule="nonzero"/></clipPath><clipPath id="1dcbfd38e4"><path d="M 0.53125 82 L 112 82 L 112 112.003906 L 0.53125 112.003906 Z M 0.53125 82 " clip-rule="nonzero"/></clipPath><clipPath id="75080569db"><path d="M 0.53125 0 L 71 0 L 71 70 L 0.53125 70 Z M 0.53125 0 " clip-rule="nonzero"/></clipPath></defs><g fill="#0094ff" fill-opacity="1"><g transform="translate(28.77582, 88.606191)"><g><path d="M 3.984375 0 L 3.984375 -36.203125 L 26.671875 -36.203125 L 26.671875 -31.5 L 9.4375 -31.5 L 9.4375 -20.46875 L 25.484375 -20.46875 L 25.484375 -15.78125 L 9.4375 -15.78125 L 9.4375 -4.703125 L 26.890625 -4.703125 L 26.890625 0 Z M 3.984375 0 "/></g></g></g><g fill="#0094ff" fill-opacity="1"><g transform="translate(61.77346, 88.606191)"><g><path d="M 23.90625 -20.53125 L 19.109375 -19.671875 C 18.910156 -20.285156 18.59375 -20.867188 18.15625 -21.421875 C 17.726562 -21.972656 17.148438 -22.425781 16.421875 -22.78125 C 15.691406 -23.132812 14.78125 -23.3125 13.6875 -23.3125 C 12.1875 -23.3125 10.9375 -22.976562 9.9375 -22.3125 C 8.9375 -21.644531 8.4375 -20.789062 8.4375 -19.75 C 8.4375 -18.84375 8.769531 -18.109375 9.4375 -17.546875 C 10.113281 -16.992188 11.195312 -16.539062 12.6875 -16.1875 L 17 -15.203125 C 19.5 -14.628906 21.363281 -13.738281 22.59375 -12.53125 C 23.820312 -11.332031 24.4375 -9.769531 24.4375 -7.84375 C 24.4375 -6.21875 23.96875 -4.769531 23.03125 -3.5 C 22.09375 -2.238281 20.789062 -1.25 19.125 -0.53125 C 17.457031 0.1875 15.523438 0.546875 13.328125 0.546875 C 10.285156 0.546875 7.800781 -0.101562 5.875 -1.40625 C 3.957031 -2.707031 2.78125 -4.5625 2.34375 -6.96875 L 7.453125 -7.75 C 7.773438 -6.414062 8.429688 -5.410156 9.421875 -4.734375 C 10.410156 -4.054688 11.703125 -3.71875 13.296875 -3.71875 C 15.023438 -3.71875 16.40625 -4.078125 17.4375 -4.796875 C 18.476562 -5.523438 19 -6.410156 19 -7.453125 C 19 -8.304688 18.679688 -9.019531 18.046875 -9.59375 C 17.421875 -10.175781 16.460938 -10.613281 15.171875 -10.90625 L 10.578125 -11.921875 C 8.035156 -12.492188 6.160156 -13.410156 4.953125 -14.671875 C 3.742188 -15.929688 3.140625 -17.53125 3.140625 -19.46875 C 3.140625 -21.070312 3.585938 -22.472656 4.484375 -23.671875 C 5.378906 -24.867188 6.617188 -25.804688 8.203125 -26.484375 C 9.785156 -27.160156 11.59375 -27.5 13.625 -27.5 C 16.5625 -27.5 18.875 -26.863281 20.5625 -25.59375 C 22.25 -24.332031 23.363281 -22.644531 23.90625 -20.53125 Z M 23.90625 -20.53125 "/></g></g></g><g fill="#0094ff" fill-opacity="1"><g transform="translate(91.430665, 88.606191)"><g><path d="M 16.234375 -27.15625 L 16.234375 -22.90625 L 1.390625 -22.90625 L 1.390625 -27.15625 Z M 5.375 -33.65625 L 10.65625 -33.65625 L 10.65625 -7.96875 C 10.65625 -6.945312 10.804688 -6.175781 11.109375 -5.65625 C 11.421875 -5.144531 11.820312 -4.796875 12.3125 -4.609375 C 12.800781 -4.429688 13.332031 -4.34375 13.90625 -4.34375 C 14.332031 -4.34375 14.703125 -4.375 15.015625 -4.4375 C 15.335938 -4.5 15.585938 -4.546875 15.765625 -4.578125 L 16.71875 -0.21875 C 16.414062 -0.09375 15.976562 0.0234375 15.40625 0.140625 C 14.84375 0.265625 14.140625 0.335938 13.296875 0.359375 C 11.898438 0.378906 10.597656 0.128906 9.390625 -0.390625 C 8.191406 -0.910156 7.222656 -1.710938 6.484375 -2.796875 C 5.742188 -3.878906 5.375 -5.238281 5.375 -6.875 Z M 5.375 -33.65625 "/></g></g></g><g fill="#0094ff" fill-opacity="1"><g transform="translate(112.922353, 88.606191)"><g><path d="M 11.453125 0.59375 C 9.734375 0.59375 8.175781 0.273438 6.78125 -0.359375 C 5.394531 -1.003906 4.296875 -1.9375 3.484375 -3.15625 C 2.679688 -4.382812 2.28125 -5.890625 2.28125 -7.671875 C 2.28125 -9.203125 2.570312 -10.460938 3.15625 -11.453125 C 3.75 -12.441406 4.546875 -13.222656 5.546875 -13.796875 C 6.546875 -14.378906 7.664062 -14.816406 8.90625 -15.109375 C 10.144531 -15.410156 11.40625 -15.632812 12.6875 -15.78125 C 14.3125 -15.96875 15.628906 -16.125 16.640625 -16.25 C 17.660156 -16.375 18.398438 -16.578125 18.859375 -16.859375 C 19.316406 -17.148438 19.546875 -17.613281 19.546875 -18.25 L 19.546875 -18.375 C 19.546875 -19.914062 19.113281 -21.109375 18.25 -21.953125 C 17.382812 -22.804688 16.097656 -23.234375 14.390625 -23.234375 C 12.609375 -23.234375 11.207031 -22.835938 10.1875 -22.046875 C 9.164062 -21.265625 8.460938 -20.398438 8.078125 -19.453125 L 3.109375 -20.578125 C 3.703125 -22.222656 4.566406 -23.554688 5.703125 -24.578125 C 6.835938 -25.597656 8.144531 -26.335938 9.625 -26.796875 C 11.113281 -27.265625 12.675781 -27.5 14.3125 -27.5 C 15.40625 -27.5 16.5625 -27.375 17.78125 -27.125 C 19 -26.875 20.140625 -26.410156 21.203125 -25.734375 C 22.265625 -25.066406 23.140625 -24.109375 23.828125 -22.859375 C 24.515625 -21.617188 24.859375 -20.007812 24.859375 -18.03125 L 24.859375 0 L 19.6875 0 L 19.6875 -3.71875 L 19.484375 -3.71875 C 19.140625 -3.03125 18.625 -2.351562 17.9375 -1.6875 C 17.257812 -1.03125 16.382812 -0.484375 15.3125 -0.046875 C 14.238281 0.378906 12.953125 0.59375 11.453125 0.59375 Z M 12.609375 -3.640625 C 14.066406 -3.640625 15.316406 -3.925781 16.359375 -4.5 C 17.398438 -5.082031 18.191406 -5.84375 18.734375 -6.78125 C 19.285156 -7.71875 19.5625 -8.722656 19.5625 -9.796875 L 19.5625 -13.296875 C 19.375 -13.109375 19.007812 -12.929688 18.46875 -12.765625 C 17.9375 -12.609375 17.328125 -12.472656 16.640625 -12.359375 C 15.960938 -12.253906 15.300781 -12.15625 14.65625 -12.0625 C 14.007812 -11.976562 13.46875 -11.90625 13.03125 -11.84375 C 12 -11.71875 11.0625 -11.5 10.21875 -11.1875 C 9.382812 -10.882812 8.710938 -10.445312 8.203125 -9.875 C 7.703125 -9.300781 7.453125 -8.539062 7.453125 -7.59375 C 7.453125 -6.289062 7.9375 -5.304688 8.90625 -4.640625 C 9.875 -3.972656 11.109375 -3.640625 12.609375 -3.640625 Z M 12.609375 -3.640625 "/></g></g></g><g fill="#0094ff" fill-opacity="1"><g transform="translate(144.240939, 88.606191)"><g><path d="M 16.234375 -27.15625 L 16.234375 -22.90625 L 1.390625 -22.90625 L 1.390625 -27.15625 Z M 5.375 -33.65625 L 10.65625 -33.65625 L 10.65625 -7.96875 C 10.65625 -6.945312 10.804688 -6.175781 11.109375 -5.65625 C 11.421875 -5.144531 11.820312 -4.796875 12.3125 -4.609375 C 12.800781 -4.429688 13.332031 -4.34375 13.90625 -4.34375 C 14.332031 -4.34375 14.703125 -4.375 15.015625 -4.4375 C 15.335938 -4.5 15.585938 -4.546875 15.765625 -4.578125 L 16.71875 -0.21875 C 16.414062 -0.09375 15.976562 0.0234375 15.40625 0.140625 C 14.84375 0.265625 14.140625 0.335938 13.296875 0.359375 C 11.898438 0.378906 10.597656 0.128906 9.390625 -0.390625 C 8.191406 -0.910156 7.222656 -1.710938 6.484375 -2.796875 C 5.742188 -3.878906 5.375 -5.238281 5.375 -6.875 Z M 5.375 -33.65625 "/></g></g></g><g fill="#0094ff" fill-opacity="1"><g transform="translate(165.732627, 88.606191)"><g><path d="M 15.25 0.546875 C 12.582031 0.546875 10.285156 -0.0234375 8.359375 -1.171875 C 6.429688 -2.328125 4.941406 -3.945312 3.890625 -6.03125 C 2.847656 -8.125 2.328125 -10.582031 2.328125 -13.40625 C 2.328125 -16.1875 2.847656 -18.632812 3.890625 -20.75 C 4.941406 -22.875 6.40625 -24.53125 8.28125 -25.71875 C 10.164062 -26.90625 12.367188 -27.5 14.890625 -27.5 C 16.421875 -27.5 17.90625 -27.242188 19.34375 -26.734375 C 20.78125 -26.234375 22.066406 -25.441406 23.203125 -24.359375 C 24.347656 -23.273438 25.25 -21.867188 25.90625 -20.140625 C 26.570312 -18.410156 26.90625 -16.316406 26.90625 -13.859375 L 26.90625 -11.984375 L 5.328125 -11.984375 L 5.328125 -15.953125 L 21.71875 -15.953125 C 21.71875 -17.335938 21.4375 -18.566406 20.875 -19.640625 C 20.3125 -20.722656 19.519531 -21.578125 18.5 -22.203125 C 17.476562 -22.828125 16.285156 -23.140625 14.921875 -23.140625 C 13.429688 -23.140625 12.132812 -22.773438 11.03125 -22.046875 C 9.9375 -21.328125 9.085938 -20.382812 8.484375 -19.21875 C 7.890625 -18.0625 7.59375 -16.804688 7.59375 -15.453125 L 7.59375 -12.359375 C 7.59375 -10.546875 7.914062 -9 8.5625 -7.71875 C 9.207031 -6.445312 10.109375 -5.476562 11.265625 -4.8125 C 12.421875 -4.144531 13.769531 -3.8125 15.3125 -3.8125 C 16.3125 -3.8125 17.222656 -3.957031 18.046875 -4.25 C 18.867188 -4.539062 19.582031 -4.972656 20.1875 -5.546875 C 20.789062 -6.128906 21.25 -6.84375 21.5625 -7.6875 L 26.5625 -6.78125 C 26.164062 -5.3125 25.453125 -4.023438 24.421875 -2.921875 C 23.390625 -1.816406 22.097656 -0.960938 20.546875 -0.359375 C 18.992188 0.242188 17.226562 0.546875 15.25 0.546875 Z M 15.25 0.546875 "/></g></g></g><g fill="#00243d" fill-opacity="1"><g transform="translate(197.957483, 88.606191)"><g><path d="M 23.71875 -26.6875 C 23.53125 -28.363281 22.753906 -29.664062 21.390625 -30.59375 C 20.023438 -31.519531 18.304688 -31.984375 16.234375 -31.984375 C 14.742188 -31.984375 13.457031 -31.75 12.375 -31.28125 C 11.289062 -30.8125 10.453125 -30.171875 9.859375 -29.359375 C 9.265625 -28.554688 8.96875 -27.644531 8.96875 -26.625 C 8.96875 -25.757812 9.171875 -25.015625 9.578125 -24.390625 C 9.984375 -23.765625 10.519531 -23.242188 11.1875 -22.828125 C 11.851562 -22.410156 12.566406 -22.0625 13.328125 -21.78125 C 14.097656 -21.507812 14.832031 -21.285156 15.53125 -21.109375 L 19.078125 -20.1875 C 20.234375 -19.90625 21.414062 -19.519531 22.625 -19.03125 C 23.84375 -18.550781 24.96875 -17.914062 26 -17.125 C 27.039062 -16.34375 27.878906 -15.367188 28.515625 -14.203125 C 29.160156 -13.035156 29.484375 -11.632812 29.484375 -10 C 29.484375 -7.957031 28.957031 -6.140625 27.90625 -4.546875 C 26.851562 -2.953125 25.328125 -1.695312 23.328125 -0.78125 C 21.328125 0.132812 18.914062 0.59375 16.09375 0.59375 C 13.375 0.59375 11.023438 0.164062 9.046875 -0.6875 C 7.066406 -1.550781 5.515625 -2.773438 4.390625 -4.359375 C 3.273438 -5.941406 2.660156 -7.820312 2.546875 -10 L 8.03125 -10 C 8.132812 -8.695312 8.5625 -7.609375 9.3125 -6.734375 C 10.0625 -5.867188 11.019531 -5.226562 12.1875 -4.8125 C 13.363281 -4.394531 14.648438 -4.1875 16.046875 -4.1875 C 17.597656 -4.1875 18.972656 -4.429688 20.171875 -4.921875 C 21.378906 -5.410156 22.332031 -6.09375 23.03125 -6.96875 C 23.726562 -7.851562 24.078125 -8.882812 24.078125 -10.0625 C 24.078125 -11.132812 23.769531 -12.007812 23.15625 -12.6875 C 22.550781 -13.375 21.734375 -13.941406 20.703125 -14.390625 C 19.671875 -14.835938 18.507812 -15.234375 17.21875 -15.578125 L 12.9375 -16.734375 C 10.039062 -17.523438 7.742188 -18.6875 6.046875 -20.21875 C 4.359375 -21.75 3.515625 -23.78125 3.515625 -26.3125 C 3.515625 -28.394531 4.078125 -30.210938 5.203125 -31.765625 C 6.335938 -33.316406 7.867188 -34.523438 9.796875 -35.390625 C 11.734375 -36.265625 13.921875 -36.703125 16.359375 -36.703125 C 18.804688 -36.703125 20.96875 -36.269531 22.84375 -35.40625 C 24.726562 -34.550781 26.210938 -33.367188 27.296875 -31.859375 C 28.378906 -30.359375 28.941406 -28.632812 28.984375 -26.6875 Z M 23.71875 -26.6875 "/></g></g></g><g fill="#00243d" fill-opacity="1"><g transform="translate(232.969987, 88.606191)"><g><path d="M 14.984375 0.546875 C 12.359375 0.546875 10.097656 -0.0507812 8.203125 -1.25 C 6.316406 -2.445312 4.863281 -4.097656 3.84375 -6.203125 C 2.832031 -8.316406 2.328125 -10.734375 2.328125 -13.453125 C 2.328125 -16.210938 2.84375 -18.648438 3.875 -20.765625 C 4.914062 -22.878906 6.378906 -24.53125 8.265625 -25.71875 C 10.160156 -26.90625 12.382812 -27.5 14.9375 -27.5 C 17 -27.5 18.835938 -27.117188 20.453125 -26.359375 C 22.066406 -25.597656 23.367188 -24.535156 24.359375 -23.171875 C 25.359375 -21.804688 25.953125 -20.210938 26.140625 -18.390625 L 21 -18.390625 C 20.71875 -19.660156 20.070312 -20.753906 19.0625 -21.671875 C 18.050781 -22.585938 16.707031 -23.046875 15.03125 -23.046875 C 13.550781 -23.046875 12.257812 -22.660156 11.15625 -21.890625 C 10.0625 -21.117188 9.207031 -20.019531 8.59375 -18.59375 C 7.976562 -17.175781 7.671875 -15.503906 7.671875 -13.578125 C 7.671875 -11.597656 7.96875 -9.890625 8.5625 -8.453125 C 9.164062 -7.015625 10.019531 -5.898438 11.125 -5.109375 C 12.226562 -4.316406 13.53125 -3.921875 15.03125 -3.921875 C 16.03125 -3.921875 16.9375 -4.101562 17.75 -4.46875 C 18.570312 -4.84375 19.265625 -5.378906 19.828125 -6.078125 C 20.390625 -6.773438 20.78125 -7.613281 21 -8.59375 L 26.140625 -8.59375 C 25.953125 -6.832031 25.378906 -5.265625 24.421875 -3.890625 C 23.472656 -2.515625 22.195312 -1.429688 20.59375 -0.640625 C 19 0.148438 17.128906 0.546875 14.984375 0.546875 Z M 14.984375 0.546875 "/></g></g></g><g fill="#00243d" fill-opacity="1"><g transform="translate(264.217878, 88.606191)"><g><path d="M 14.984375 0.546875 C 12.441406 0.546875 10.222656 -0.0351562 8.328125 -1.203125 C 6.429688 -2.367188 4.957031 -4 3.90625 -6.09375 C 2.851562 -8.195312 2.328125 -10.648438 2.328125 -13.453125 C 2.328125 -16.265625 2.851562 -18.722656 3.90625 -20.828125 C 4.957031 -22.941406 6.429688 -24.582031 8.328125 -25.75 C 10.222656 -26.914062 12.441406 -27.5 14.984375 -27.5 C 17.535156 -27.5 19.757812 -26.914062 21.65625 -25.75 C 23.550781 -24.582031 25.019531 -22.941406 26.0625 -20.828125 C 27.113281 -18.722656 27.640625 -16.265625 27.640625 -13.453125 C 27.640625 -10.648438 27.113281 -8.195312 26.0625 -6.09375 C 25.019531 -4 23.550781 -2.367188 21.65625 -1.203125 C 19.757812 -0.0351562 17.535156 0.546875 14.984375 0.546875 Z M 15.015625 -3.890625 C 16.660156 -3.890625 18.023438 -4.320312 19.109375 -5.1875 C 20.191406 -6.0625 20.992188 -7.222656 21.515625 -8.671875 C 22.046875 -10.128906 22.3125 -11.726562 22.3125 -13.46875 C 22.3125 -15.195312 22.046875 -16.789062 21.515625 -18.25 C 20.992188 -19.707031 20.191406 -20.878906 19.109375 -21.765625 C 18.023438 -22.648438 16.660156 -23.09375 15.015625 -23.09375 C 13.347656 -23.09375 11.96875 -22.648438 10.875 -21.765625 C 9.789062 -20.878906 8.984375 -19.707031 8.453125 -18.25 C 7.929688 -16.789062 7.671875 -15.195312 7.671875 -13.46875 C 7.671875 -11.726562 7.929688 -10.128906 8.453125 -8.671875 C 8.984375 -7.222656 9.789062 -6.0625 10.875 -5.1875 C 11.96875 -4.320312 13.347656 -3.890625 15.015625 -3.890625 Z M 15.015625 -3.890625 "/></g></g></g><g fill="#00243d" fill-opacity="1"><g transform="translate(297.180175, 88.606191)"><g><path d="M 20.75 -11.265625 L 20.75 -27.15625 L 26.0625 -27.15625 L 26.0625 0 L 20.859375 0 L 20.859375 -4.703125 L 20.578125 -4.703125 C 19.953125 -3.253906 18.953125 -2.046875 17.578125 -1.078125 C 16.203125 -0.117188 14.5 0.359375 12.46875 0.359375 C 10.71875 0.359375 9.171875 -0.0234375 7.828125 -0.796875 C 6.492188 -1.578125 5.445312 -2.722656 4.6875 -4.234375 C 3.925781 -5.753906 3.546875 -7.632812 3.546875 -9.875 L 3.546875 -27.15625 L 8.84375 -27.15625 L 8.84375 -10.515625 C 8.84375 -8.671875 9.351562 -7.195312 10.375 -6.09375 C 11.40625 -5 12.738281 -4.453125 14.375 -4.453125 C 15.363281 -4.453125 16.347656 -4.695312 17.328125 -5.1875 C 18.316406 -5.6875 19.132812 -6.4375 19.78125 -7.4375 C 20.4375 -8.4375 20.757812 -9.710938 20.75 -11.265625 Z M 20.75 -11.265625 "/></g></g></g><g fill="#00243d" fill-opacity="1"><g transform="translate(329.753636, 88.606191)"><g><path d="M 16.234375 -27.15625 L 16.234375 -22.90625 L 1.390625 -22.90625 L 1.390625 -27.15625 Z M 5.375 -33.65625 L 10.65625 -33.65625 L 10.65625 -7.96875 C 10.65625 -6.945312 10.804688 -6.175781 11.109375 -5.65625 C 11.421875 -5.144531 11.820312 -4.796875 12.3125 -4.609375 C 12.800781 -4.429688 13.332031 -4.34375 13.90625 -4.34375 C 14.332031 -4.34375 14.703125 -4.375 15.015625 -4.4375 C 15.335938 -4.5 15.585938 -4.546875 15.765625 -4.578125 L 16.71875 -0.21875 C 16.414062 -0.09375 15.976562 0.0234375 15.40625 0.140625 C 14.84375 0.265625 14.140625 0.335938 13.296875 0.359375 C 11.898438 0.378906 10.597656 0.128906 9.390625 -0.390625 C 8.191406 -0.910156 7.222656 -1.710938 6.484375 -2.796875 C 5.742188 -3.878906 5.375 -5.238281 5.375 -6.875 Z M 5.375 -33.65625 "/></g></g></g><g clip-path="url(#013d447896)"><path stroke-linecap="butt" transform="matrix(-0.00924411, -0.933306, 0.933306, -0.00924411, 2.119873, 110.39385)" fill="none" stroke-linejoin="miter" d="M -0.000378725 2.499983 L 73.587154 2.500586 " stroke="#0094ff" stroke-width="5" stroke-opacity="1" stroke-miterlimit="4"/></g><g clip-path="url(#1dcbfd38e4)"><path stroke-linecap="butt" transform="matrix(-0.933343, -0.00410198, 0.00410198, -0.933343, 84.968433, 111.626881)" fill="none" stroke-linejoin="miter" d="M -0.00190489 2.500603 L 88.628622 2.500304 " stroke="#0094ff" stroke-width="5" stroke-opacity="1" stroke-miterlimit="4"/></g><g clip-path="url(#75080569db)"><path stroke-linecap="butt" transform="matrix(0.659979, -0.659979, 0.659979, 0.659979, 1.457099, 41.45362)" fill="none" stroke-linejoin="miter" d="M -0.00263565 2.500243 L 62.250732 2.500243 " stroke="#0094ff" stroke-width="5" stroke-opacity="1" stroke-miterlimit="4"/></g><path stroke-linecap="butt" transform="matrix(0.659979, 0.659979, -0.659979, 0.659979, 43.078794, 0.385017)" fill="none" stroke-linejoin="miter" d="M 0.000782538 2.499507 L 62.236394 2.499507 " stroke="#0094ff" stroke-width="5" stroke-opacity="1" stroke-miterlimit="4"/></svg>